<svg width="50" height="44" viewBox="0 0 50 44" fill="none" xmlns="http://www.w3.org/2000/svg">
<path id="Trademark" d="M50 22.005C50 18.732 45.852 15.6301 39.4925 13.7066C40.96 7.30144 40.3078 2.20554 37.4338 0.574044C36.7713 0.191348 35.9967 0.0100708 35.1508 0.0100708V2.25589C35.6196 2.25589 35.9967 2.34653 36.3127 2.51774C37.6987 3.30327 38.3 6.29435 37.8312 10.1414C37.7191 11.0881 37.5357 12.0851 37.3115 13.1023C35.3139 12.6189 33.1329 12.2463 30.8398 12.0046C29.4639 10.1414 28.0371 8.44953 26.6001 6.9691C29.9225 3.9176 33.0412 2.24582 35.161 2.24582V0C32.3583 0 28.6894 1.97391 24.9796 5.39803C21.2699 1.99405 17.6009 0.040284 14.7982 0.040284V2.28611C16.9079 2.28611 20.0367 3.94781 23.3592 6.97917C21.9323 8.4596 20.5055 10.1414 19.15 12.0046C16.8467 12.2463 14.6657 12.6189 12.6682 13.1124C12.4338 12.1053 12.2605 11.1284 12.1382 10.1918C11.6592 6.3447 12.2503 3.35363 13.6262 2.55802C13.9319 2.37675 14.3294 2.29618 14.7982 2.29618V0.0503548C13.9421 0.0503548 13.1675 0.231632 12.4949 0.614328C9.63106 2.24582 8.98899 7.33165 10.4668 13.7166C4.1276 15.6503 0 18.742 0 22.005C0 25.2781 4.14798 28.3799 10.5075 30.3035C9.03995 36.7086 9.69221 41.8045 12.5662 43.436C13.2287 43.8187 14.0033 44 14.8594 44C17.662 44 21.331 42.0261 25.0408 38.602C28.7505 42.0059 32.4195 43.9597 35.2222 43.9597C36.0783 43.9597 36.8528 43.7784 37.5255 43.3957C40.3893 41.7642 41.0314 36.6784 39.5536 30.2934C45.8724 28.3699 50 25.268 50 22.005ZM36.7305 15.2877C36.3534 16.5869 35.8846 17.9263 35.3547 19.2657C34.9368 18.4601 34.4986 17.6544 34.0196 16.8487C33.5508 16.043 33.0514 15.2575 32.552 14.4921C33.9992 14.7036 35.3954 14.9654 36.7305 15.2877ZM32.0628 26.0133C31.2678 27.3729 30.4525 28.6619 29.6066 29.8604C28.0881 29.9913 26.5491 30.0618 25 30.0618C23.4611 30.0618 21.9221 29.9913 20.4138 29.8704C19.5679 28.672 18.7424 27.393 17.9474 26.0435C17.1728 24.7242 16.4696 23.3848 15.8276 22.0352C16.4594 20.6857 17.1729 19.3362 17.9372 18.0169C18.7322 16.6574 19.5475 15.3683 20.3934 14.1698C21.9119 14.0389 23.4509 13.9684 25 13.9684C26.5389 13.9684 28.0779 14.0389 29.5862 14.1598C30.4321 15.3582 31.2576 16.6372 32.0526 17.9867C32.8272 19.306 33.5304 20.6455 34.1724 21.995C33.5304 23.3445 32.8271 24.694 32.0628 26.0133ZM35.3547 24.704C35.905 26.0536 36.3738 27.4031 36.7611 28.7123C35.426 29.0346 34.0196 29.3065 32.5622 29.518C33.0616 28.7425 33.5609 27.9469 34.0298 27.1311C34.4986 26.3255 34.9368 25.5097 35.3547 24.704ZM25.0204 35.4498C24.0726 34.4829 23.1247 33.4054 22.1871 32.2271C23.1044 32.2673 24.042 32.2976 24.9898 32.2976C25.9478 32.2976 26.8956 32.2774 27.8231 32.2271C26.9058 33.4054 25.958 34.4829 25.0204 35.4498ZM17.4378 29.518C15.9906 29.3065 14.5944 29.0446 13.2593 28.7224C13.6364 27.4232 14.1052 26.0838 14.6351 24.7443C15.053 25.55 15.4912 26.3557 15.9702 27.1614C16.4492 27.967 16.9384 28.7526 17.4378 29.518ZM24.9694 8.56031C25.9172 9.52712 26.8651 10.6047 27.8027 11.783C26.8854 11.7427 25.9478 11.7125 25 11.7125C24.042 11.7125 23.0942 11.7327 22.1667 11.783C23.084 10.6047 24.0318 9.52712 24.9694 8.56031ZM17.4276 14.4921C16.9283 15.2676 16.4289 16.0632 15.96 16.8789C15.4912 17.6846 15.053 18.4903 14.6351 19.2959C14.0848 17.9464 13.616 16.5969 13.2287 15.2877C14.5638 14.9755 15.9702 14.7036 17.4276 14.4921ZM8.20424 27.1009C4.59641 25.5802 2.26254 23.5862 2.26254 22.005C2.26254 20.4239 4.59641 18.4198 8.20424 16.9091C9.08072 16.5365 10.0387 16.2042 11.0273 15.892C11.6082 17.8659 12.3726 19.9203 13.3204 22.0252C12.3828 24.1199 11.6286 26.1643 11.0579 28.1282C10.0489 27.816 9.09091 27.4736 8.20424 27.1009ZM13.6873 41.4923C12.3013 40.7068 11.7 37.7157 12.1688 33.8686C12.2809 32.9219 12.4643 31.9249 12.6885 30.9078C14.6861 31.3912 16.8671 31.7638 19.1602 32.0055C20.5361 33.8686 21.9629 35.5605 23.3999 37.041C20.0775 40.0925 16.9588 41.7642 14.839 41.7642C14.3804 41.7542 13.9931 41.6635 13.6873 41.4923ZM37.8618 33.8183C38.3408 37.6654 37.7497 40.6564 36.3738 41.452C36.0681 41.6333 35.6706 41.7139 35.2018 41.7139C33.0921 41.7139 29.9633 40.0522 26.6409 37.0208C28.0677 35.5404 29.4945 33.8585 30.85 31.9954C33.1533 31.7537 35.3343 31.3811 37.3318 30.8876C37.5662 31.9048 37.7497 32.8817 37.8618 33.8183ZM41.7856 27.1009C40.9091 27.4736 39.9511 27.8059 38.9625 28.1181C38.3816 26.1442 37.6172 24.0897 36.6694 21.9849C37.607 19.8901 38.3612 17.8457 38.9319 15.8819C39.9409 16.1941 40.8989 16.5365 41.7958 16.9091C45.4036 18.4298 47.7375 20.4239 47.7375 22.005C47.7273 23.5862 45.3934 25.5903 41.7856 27.1009Z" fill="#61DAFB"/>
</svg>
